<mxfile host="app.diagrams.net" modified="2024-01-25T16:13:38.760Z" agent="Mozilla/5.0 (Windows NT 10.0; Win64; x64; rv:122.0) Gecko/20100101 Firefox/122.0" etag="duaRj7mqrhX7tYbLmdxz" version="23.0.2" type="device">
  <diagram name="Page-1" id="DpwEf_ijwhRhZHkCLRWW">
    <mxGraphModel dx="1728" dy="922" grid="0" gridSize="10" guides="1" tooltips="1" connect="1" arrows="1" fold="1" page="1" pageScale="1" pageWidth="850" pageHeight="1100" math="0" shadow="0">
      <root>
        <mxCell id="0" />
        <mxCell id="1" parent="0" />
        <mxCell id="RFxG3lDSQZgmRRx-hy4t-11" value="" style="edgeStyle=orthogonalEdgeStyle;rounded=0;orthogonalLoop=1;jettySize=auto;html=1;" edge="1" parent="1" source="RFxG3lDSQZgmRRx-hy4t-1" target="RFxG3lDSQZgmRRx-hy4t-2">
          <mxGeometry relative="1" as="geometry" />
        </mxCell>
        <mxCell id="RFxG3lDSQZgmRRx-hy4t-1" value="Determine Needed Data and define helper functions to extract appropriate information from API" style="rounded=0;whiteSpace=wrap;html=1;" vertex="1" parent="1">
          <mxGeometry x="305" y="20" width="190" height="60" as="geometry" />
        </mxCell>
        <mxCell id="RFxG3lDSQZgmRRx-hy4t-4" value="" style="edgeStyle=orthogonalEdgeStyle;rounded=0;orthogonalLoop=1;jettySize=auto;html=1;" edge="1" parent="1" source="RFxG3lDSQZgmRRx-hy4t-2" target="RFxG3lDSQZgmRRx-hy4t-3">
          <mxGeometry relative="1" as="geometry" />
        </mxCell>
        <mxCell id="RFxG3lDSQZgmRRx-hy4t-2" value="&lt;div&gt;Define API Url&lt;br&gt;&quot;https://api.spacexdata.com/v4/launches/past&quot;&lt;br&gt;&lt;/div&gt;" style="rounded=0;whiteSpace=wrap;html=1;" vertex="1" parent="1">
          <mxGeometry x="270" y="100" width="260" height="60" as="geometry" />
        </mxCell>
        <mxCell id="RFxG3lDSQZgmRRx-hy4t-6" value="" style="edgeStyle=orthogonalEdgeStyle;rounded=0;orthogonalLoop=1;jettySize=auto;html=1;" edge="1" parent="1" source="RFxG3lDSQZgmRRx-hy4t-3" target="RFxG3lDSQZgmRRx-hy4t-5">
          <mxGeometry relative="1" as="geometry" />
        </mxCell>
        <mxCell id="RFxG3lDSQZgmRRx-hy4t-3" value="Convert extracted JSON file into pandas dataframe" style="whiteSpace=wrap;html=1;rounded=0;" vertex="1" parent="1">
          <mxGeometry x="290" y="180" width="210" height="60" as="geometry" />
        </mxCell>
        <mxCell id="RFxG3lDSQZgmRRx-hy4t-8" value="" style="edgeStyle=orthogonalEdgeStyle;rounded=0;orthogonalLoop=1;jettySize=auto;html=1;" edge="1" parent="1" source="RFxG3lDSQZgmRRx-hy4t-5" target="RFxG3lDSQZgmRRx-hy4t-7">
          <mxGeometry relative="1" as="geometry" />
        </mxCell>
        <mxCell id="RFxG3lDSQZgmRRx-hy4t-5" value="Recall API with launch IDs to extract detailed information about each launch&lt;br&gt;" style="whiteSpace=wrap;html=1;rounded=0;" vertex="1" parent="1">
          <mxGeometry x="287.5" y="260" width="215" height="60" as="geometry" />
        </mxCell>
        <mxCell id="RFxG3lDSQZgmRRx-hy4t-10" value="" style="edgeStyle=orthogonalEdgeStyle;rounded=0;orthogonalLoop=1;jettySize=auto;html=1;" edge="1" parent="1" source="RFxG3lDSQZgmRRx-hy4t-7" target="RFxG3lDSQZgmRRx-hy4t-9">
          <mxGeometry relative="1" as="geometry" />
        </mxCell>
        <mxCell id="RFxG3lDSQZgmRRx-hy4t-7" value="Header IDs determined and combined into a directionary" style="whiteSpace=wrap;html=1;rounded=0;" vertex="1" parent="1">
          <mxGeometry x="280" y="340" width="230" height="60" as="geometry" />
        </mxCell>
        <mxCell id="RFxG3lDSQZgmRRx-hy4t-18" value="" style="edgeStyle=orthogonalEdgeStyle;rounded=0;orthogonalLoop=1;jettySize=auto;html=1;" edge="1" parent="1" source="RFxG3lDSQZgmRRx-hy4t-9" target="RFxG3lDSQZgmRRx-hy4t-17">
          <mxGeometry relative="1" as="geometry" />
        </mxCell>
        <mxCell id="RFxG3lDSQZgmRRx-hy4t-9" value="Dataframe constructed from extracted API data" style="whiteSpace=wrap;html=1;rounded=0;" vertex="1" parent="1">
          <mxGeometry x="335" y="420" width="120" height="60" as="geometry" />
        </mxCell>
        <mxCell id="RFxG3lDSQZgmRRx-hy4t-20" value="" style="edgeStyle=orthogonalEdgeStyle;rounded=0;orthogonalLoop=1;jettySize=auto;html=1;" edge="1" parent="1" source="RFxG3lDSQZgmRRx-hy4t-17" target="RFxG3lDSQZgmRRx-hy4t-19">
          <mxGeometry relative="1" as="geometry" />
        </mxCell>
        <mxCell id="RFxG3lDSQZgmRRx-hy4t-17" value="Data filtered down just to Falcon9 booster types" style="whiteSpace=wrap;html=1;rounded=0;" vertex="1" parent="1">
          <mxGeometry x="335" y="500" width="120" height="60" as="geometry" />
        </mxCell>
        <mxCell id="RFxG3lDSQZgmRRx-hy4t-22" value="" style="edgeStyle=orthogonalEdgeStyle;rounded=0;orthogonalLoop=1;jettySize=auto;html=1;" edge="1" parent="1" source="RFxG3lDSQZgmRRx-hy4t-19" target="RFxG3lDSQZgmRRx-hy4t-21">
          <mxGeometry relative="1" as="geometry" />
        </mxCell>
        <mxCell id="RFxG3lDSQZgmRRx-hy4t-24" value="" style="edgeStyle=orthogonalEdgeStyle;rounded=0;orthogonalLoop=1;jettySize=auto;html=1;" edge="1" parent="1" source="RFxG3lDSQZgmRRx-hy4t-19" target="RFxG3lDSQZgmRRx-hy4t-23">
          <mxGeometry relative="1" as="geometry" />
        </mxCell>
        <mxCell id="RFxG3lDSQZgmRRx-hy4t-19" value="Data Missing from Payload Mass?" style="rhombus;whiteSpace=wrap;html=1;rounded=0;" vertex="1" parent="1">
          <mxGeometry x="386.5" y="589" width="125" height="110" as="geometry" />
        </mxCell>
        <mxCell id="RFxG3lDSQZgmRRx-hy4t-26" value="" style="edgeStyle=orthogonalEdgeStyle;rounded=0;orthogonalLoop=1;jettySize=auto;html=1;" edge="1" parent="1" source="RFxG3lDSQZgmRRx-hy4t-21" target="RFxG3lDSQZgmRRx-hy4t-25">
          <mxGeometry relative="1" as="geometry" />
        </mxCell>
        <mxCell id="RFxG3lDSQZgmRRx-hy4t-21" value="Calculate the mean of all available payloadmass and repopulate missing values with the mean." style="whiteSpace=wrap;html=1;rounded=0;" vertex="1" parent="1">
          <mxGeometry x="159" y="614" width="185" height="60" as="geometry" />
        </mxCell>
        <mxCell id="RFxG3lDSQZgmRRx-hy4t-29" style="edgeStyle=orthogonalEdgeStyle;rounded=0;orthogonalLoop=1;jettySize=auto;html=1;entryX=1;entryY=0.5;entryDx=0;entryDy=0;exitX=0.5;exitY=1;exitDx=0;exitDy=0;" edge="1" parent="1" source="RFxG3lDSQZgmRRx-hy4t-23" target="RFxG3lDSQZgmRRx-hy4t-27">
          <mxGeometry relative="1" as="geometry">
            <mxPoint x="619" y="689" as="sourcePoint" />
            <mxPoint x="544" y="799" as="targetPoint" />
            <Array as="points">
              <mxPoint x="619" y="674" />
              <mxPoint x="619" y="759" />
            </Array>
          </mxGeometry>
        </mxCell>
        <mxCell id="RFxG3lDSQZgmRRx-hy4t-23" value="No data adjustment requried" style="whiteSpace=wrap;html=1;rounded=0;" vertex="1" parent="1">
          <mxGeometry x="564" y="614" width="120" height="60" as="geometry" />
        </mxCell>
        <mxCell id="RFxG3lDSQZgmRRx-hy4t-28" value="" style="edgeStyle=orthogonalEdgeStyle;rounded=0;orthogonalLoop=1;jettySize=auto;html=1;" edge="1" parent="1" source="RFxG3lDSQZgmRRx-hy4t-25" target="RFxG3lDSQZgmRRx-hy4t-27">
          <mxGeometry relative="1" as="geometry" />
        </mxCell>
        <mxCell id="RFxG3lDSQZgmRRx-hy4t-25" value="New values added back to the original dataframe" style="whiteSpace=wrap;html=1;rounded=0;" vertex="1" parent="1">
          <mxGeometry x="191.5" y="729" width="120" height="60" as="geometry" />
        </mxCell>
        <mxCell id="RFxG3lDSQZgmRRx-hy4t-27" value="&lt;div&gt;Final API&lt;/div&gt;&lt;div&gt;Dataset&lt;br&gt;&lt;/div&gt;" style="ellipse;whiteSpace=wrap;html=1;rounded=0;" vertex="1" parent="1">
          <mxGeometry x="409" y="719" width="80" height="80" as="geometry" />
        </mxCell>
      </root>
    </mxGraphModel>
  </diagram>
</mxfile>
